<?xml version="1.0" encoding="UTF-8"?>
<svg width="160px" height="160px" viewBox="0 0 160 160" version="1.1" xmlns="http://www.w3.org/2000/svg" xmlns:xlink="http://www.w3.org/1999/xlink">
    <!-- Generator: Sketch 49.3 (51167) - http://www.bohemiancoding.com/sketch -->
    <title>Logo</title>
    <desc>Created with Sketch.</desc>
    <defs></defs>
    <g id="Page-1" stroke="none" stroke-width="1" fill="none" fill-rule="evenodd">
        <g id="Tela-de-Login" transform="translate(-1472.000000, -517.000000)" fill="#D0021B">
            <g id="Caixa-de-login" transform="translate(1152.000000, 443.000000)">
                <g id="Logo" transform="translate(320.000000, 74.000000)">
                    <path d="M107,40 L107,63 C107,64.1045695 107.895431,65 109,65 L111,65 C112.104569,65 113,64.1045695 113,63 L113,40 C113,38.8954305 113.895431,38 115,38 L116,38 C117.104569,38 118,38.8954305 118,40 L118,63 C118,74.9682815 113.290364,84.9722859 107,87.4246794 L107,149.993074 C135.080361,139.153806 155,111.903143 155,80 C155,38.5786438 121.421356,5 80,5 C38.5786438,5 5,38.5786438 5,80 C5,112.280566 25.3937359,139.797919 54,150.370852 L54,87.7468255 C47.2154117,86.0138624 42,75.5945425 42,63 C42,49.1928813 48.2680135,38 56,38 C63.7319865,38 70,49.1928813 70,63 C70,74.9682808 65.290364,84.9722858 59,87.4246794 L59,152 C59,152.006765 58.9999328,152.013515 58.9997991,152.020248 C65.663437,153.959989 72.7102647,155 80,155 C87.6553756,155 95.0428647,153.853042 102,151.721593 L102,87.7468255 C95.2154117,86.0138624 90,75.5945425 90,63 L90,40 C90,38.8954305 90.8954305,38 92,38 L93,38 C94.1045695,38 95,38.8954305 95,40 L95,63 C95,64.1045695 95.8954305,65 97,65 L99,65 C100.104569,65 101,64.1045695 101,63 L101,40 C101,38.8954305 101.895431,38 103,38 L105,38 C106.104569,38 107,38.8954305 107,40 Z M80,160 C35.81722,160 0,124.18278 0,80 C0,35.81722 35.81722,0 80,0 C124.18278,0 160,35.81722 160,80 C160,124.18278 124.18278,160 80,160 Z"></path>
                </g>
            </g>
        </g>
    </g>
</svg>